# xmcd
#
# Track frame offsets: 
#        150
#        21476
#        43312
#        70008
#        92057
#        120591
#        149491
#        185055
#        216189
#        230255
#        244951
#        270817
#        299643
#        323434
#        348197
#
# Disc length: 4891 seconds
#
# Revision: 0
# Processed by: cddbd v1.5.2PL0 Copyright (c) Steve Scherf et al.
# Submitted via: ExactAudioCopy v1.3
#
DISCID=e413190f
DTITLE=Enrico Crivellaro - Walkn' And Walkn' [ disk 1 ]
DYEAR=1996
DGENRE=Electric Blues
TTITLE0=Help Me Flip Another Flop
TTITLE1=Stand By
TTITLE2=Black Coffee
TTITLE3=Guitar Rumba
TTITLE4=Say No More
TTITLE5=Walkn' And Walkn'
TTITLE6=Hubert
TTITLE7=In A Sentimental Mood
TTITLE8=Mosquito Bite
TTITLE9=Drinkn' Cheap Champagne
TTITLE10=One For Lucy
TTITLE11=Blackout
TTITLE12=Casa Babylon
TTITLE13=Mr. Willits Playboy
TTITLE14=The 'In' Crowd
EXTD=
EXTT0=
EXTT1=
EXTT2=
EXTT3=
EXTT4=
EXTT5=
EXTT6=
EXTT7=
EXTT8=
EXTT9=
EXTT10=
EXTT11=
EXTT12=
EXTT13=
EXTT14=
PLAYORDER=
